<mxfile host="app.diagrams.net" modified="2023-07-27T07:25:15.633Z" agent="Mozilla/5.0 (Macintosh; Intel Mac OS X 10_12_3) AppleWebKit/537.36 (KHTML, like Gecko) Chrome/102.0.5005.167 YaBrowser/22.7.5.1018 Yowser/2.5 Safari/537.36" etag="IYHAQNXFZ5sy3j44AQ50" version="21.6.5" type="github">
  <diagram id="C5RBs43oDa-KdzZeNtuy" name="Page-1">
    <mxGraphModel dx="1008" dy="552" grid="1" gridSize="10" guides="1" tooltips="1" connect="1" arrows="1" fold="1" page="1" pageScale="1" pageWidth="827" pageHeight="1169" math="0" shadow="0">
      <root>
        <mxCell id="WIyWlLk6GJQsqaUBKTNV-0" />
        <mxCell id="WIyWlLk6GJQsqaUBKTNV-1" parent="WIyWlLk6GJQsqaUBKTNV-0" />
        <mxCell id="WIyWlLk6GJQsqaUBKTNV-2" value="" style="rounded=0;html=1;jettySize=auto;orthogonalLoop=1;fontSize=11;endArrow=block;endFill=0;endSize=8;strokeWidth=1;shadow=0;labelBackgroundColor=none;edgeStyle=orthogonalEdgeStyle;" parent="WIyWlLk6GJQsqaUBKTNV-1" source="WIyWlLk6GJQsqaUBKTNV-3" edge="1">
          <mxGeometry relative="1" as="geometry">
            <mxPoint x="570" y="220" as="targetPoint" />
            <Array as="points">
              <mxPoint x="570" y="210" />
              <mxPoint x="571" y="210" />
            </Array>
          </mxGeometry>
        </mxCell>
        <mxCell id="WIyWlLk6GJQsqaUBKTNV-3" value="Admin&lt;br&gt;section" style="rounded=1;whiteSpace=wrap;html=1;fontSize=12;glass=0;strokeWidth=1;shadow=0;" parent="WIyWlLk6GJQsqaUBKTNV-1" vertex="1">
          <mxGeometry x="510" y="140" width="120" height="40" as="geometry" />
        </mxCell>
        <mxCell id="8A1BeJ2PKTvU-dlPHzyy-52" style="edgeStyle=orthogonalEdgeStyle;rounded=0;orthogonalLoop=1;jettySize=auto;html=1;entryX=0.5;entryY=0;entryDx=0;entryDy=0;" edge="1" parent="WIyWlLk6GJQsqaUBKTNV-1" source="WIyWlLk6GJQsqaUBKTNV-6" target="8A1BeJ2PKTvU-dlPHzyy-27">
          <mxGeometry relative="1" as="geometry" />
        </mxCell>
        <mxCell id="WIyWlLk6GJQsqaUBKTNV-6" value="проверка&lt;br&gt;формата&lt;br&gt;даты" style="rhombus;whiteSpace=wrap;html=1;shadow=0;fontFamily=Helvetica;fontSize=12;align=center;strokeWidth=1;spacing=6;spacingTop=-4;" parent="WIyWlLk6GJQsqaUBKTNV-1" vertex="1">
          <mxGeometry x="307.5" y="463" width="130" height="105" as="geometry" />
        </mxCell>
        <mxCell id="8A1BeJ2PKTvU-dlPHzyy-68" value="" style="edgeStyle=orthogonalEdgeStyle;rounded=0;orthogonalLoop=1;jettySize=auto;html=1;" edge="1" parent="WIyWlLk6GJQsqaUBKTNV-1">
          <mxGeometry relative="1" as="geometry">
            <mxPoint x="414" y="90" as="sourcePoint" />
            <mxPoint x="414" y="200" as="targetPoint" />
          </mxGeometry>
        </mxCell>
        <mxCell id="8A1BeJ2PKTvU-dlPHzyy-1" value="" style="rounded=0;html=1;jettySize=auto;orthogonalLoop=1;fontSize=11;endArrow=block;endFill=0;endSize=8;strokeWidth=1;shadow=0;labelBackgroundColor=none;edgeStyle=orthogonalEdgeStyle;exitX=1;exitY=0.5;exitDx=0;exitDy=0;" edge="1" parent="WIyWlLk6GJQsqaUBKTNV-1" source="8A1BeJ2PKTvU-dlPHzyy-69">
          <mxGeometry relative="1" as="geometry">
            <mxPoint x="474" y="60" as="sourcePoint" />
            <mxPoint x="570" y="140" as="targetPoint" />
            <Array as="points">
              <mxPoint x="570" y="60" />
            </Array>
          </mxGeometry>
        </mxCell>
        <mxCell id="8A1BeJ2PKTvU-dlPHzyy-36" value="" style="edgeStyle=orthogonalEdgeStyle;rounded=0;orthogonalLoop=1;jettySize=auto;html=1;" edge="1" parent="WIyWlLk6GJQsqaUBKTNV-1" source="8A1BeJ2PKTvU-dlPHzyy-2" target="8A1BeJ2PKTvU-dlPHzyy-35">
          <mxGeometry relative="1" as="geometry">
            <Array as="points">
              <mxPoint x="210" y="200" />
              <mxPoint x="210" y="200" />
            </Array>
          </mxGeometry>
        </mxCell>
        <mxCell id="8A1BeJ2PKTvU-dlPHzyy-2" value="Client&lt;br&gt;section" style="rounded=1;whiteSpace=wrap;html=1;" vertex="1" parent="WIyWlLk6GJQsqaUBKTNV-1">
          <mxGeometry x="150" y="140" width="130" height="40" as="geometry" />
        </mxCell>
        <mxCell id="8A1BeJ2PKTvU-dlPHzyy-3" value="" style="rounded=0;html=1;jettySize=auto;orthogonalLoop=1;fontSize=11;endArrow=block;endFill=0;endSize=8;strokeWidth=1;shadow=0;labelBackgroundColor=none;edgeStyle=orthogonalEdgeStyle;exitX=0;exitY=0.5;exitDx=0;exitDy=0;" edge="1" parent="WIyWlLk6GJQsqaUBKTNV-1" source="8A1BeJ2PKTvU-dlPHzyy-69">
          <mxGeometry relative="1" as="geometry">
            <mxPoint x="380" y="60" as="sourcePoint" />
            <mxPoint x="210" y="140" as="targetPoint" />
            <Array as="points">
              <mxPoint x="210" y="60" />
            </Array>
          </mxGeometry>
        </mxCell>
        <mxCell id="8A1BeJ2PKTvU-dlPHzyy-6" value="&lt;span style=&quot;color: rgb(106, 171, 115); font-family: &amp;quot;JetBrains Mono&amp;quot;, monospace; font-size: 12px; font-style: normal; font-variant-ligatures: normal; font-variant-caps: normal; font-weight: 400; letter-spacing: normal; orphans: 2; text-align: left; text-indent: 0px; text-transform: none; widows: 2; word-spacing: 0px; -webkit-text-stroke-width: 0px; background-color: rgb(30, 31, 34); text-decoration-thickness: initial; text-decoration-style: initial; text-decoration-color: initial; float: none; display: inline !important;&quot;&gt;заметка о клиенте&lt;/span&gt;" style="rounded=1;whiteSpace=wrap;html=1;" vertex="1" parent="WIyWlLk6GJQsqaUBKTNV-1">
          <mxGeometry x="354" y="220" width="120" height="40" as="geometry" />
        </mxCell>
        <mxCell id="8A1BeJ2PKTvU-dlPHzyy-7" value="&lt;meta charset=&quot;utf-8&quot;&gt;&lt;span style=&quot;color: rgb(106, 171, 115); font-family: &amp;quot;JetBrains Mono&amp;quot;, monospace; font-size: 12px; font-style: normal; font-variant-ligatures: normal; font-variant-caps: normal; font-weight: 400; letter-spacing: normal; orphans: 2; text-align: left; text-indent: 0px; text-transform: none; widows: 2; word-spacing: 0px; -webkit-text-stroke-width: 0px; background-color: rgb(30, 31, 34); text-decoration-thickness: initial; text-decoration-style: initial; text-decoration-color: initial; float: none; display: inline !important;&quot;&gt;расписание на дату&lt;/span&gt;" style="rounded=1;whiteSpace=wrap;html=1;" vertex="1" parent="WIyWlLk6GJQsqaUBKTNV-1">
          <mxGeometry x="510" y="220" width="120" height="40" as="geometry" />
        </mxCell>
        <mxCell id="8A1BeJ2PKTvU-dlPHzyy-66" value="" style="edgeStyle=orthogonalEdgeStyle;rounded=0;orthogonalLoop=1;jettySize=auto;html=1;exitX=0.5;exitY=1;exitDx=0;exitDy=0;" edge="1" parent="WIyWlLk6GJQsqaUBKTNV-1" source="8A1BeJ2PKTvU-dlPHzyy-8" target="8A1BeJ2PKTvU-dlPHzyy-65">
          <mxGeometry relative="1" as="geometry">
            <mxPoint x="710" y="260" as="sourcePoint" />
          </mxGeometry>
        </mxCell>
        <mxCell id="8A1BeJ2PKTvU-dlPHzyy-8" value="&lt;meta charset=&quot;utf-8&quot;&gt;&lt;span style=&quot;color: rgb(106, 171, 115); font-family: &amp;quot;JetBrains Mono&amp;quot;, monospace; font-size: 12px; font-style: normal; font-variant-ligatures: normal; font-variant-caps: normal; font-weight: 400; letter-spacing: normal; orphans: 2; text-align: left; text-indent: 0px; text-transform: none; widows: 2; word-spacing: 0px; -webkit-text-stroke-width: 0px; background-color: rgb(30, 31, 34); text-decoration-thickness: initial; text-decoration-style: initial; text-decoration-color: initial; float: none; display: inline !important;&quot;&gt;Посмотреть клиентов&lt;/span&gt;" style="rounded=1;whiteSpace=wrap;html=1;" vertex="1" parent="WIyWlLk6GJQsqaUBKTNV-1">
          <mxGeometry x="660" y="220" width="120" height="40" as="geometry" />
        </mxCell>
        <mxCell id="8A1BeJ2PKTvU-dlPHzyy-9" value="" style="rounded=0;html=1;jettySize=auto;orthogonalLoop=1;fontSize=11;endArrow=block;endFill=0;endSize=8;strokeWidth=1;shadow=0;labelBackgroundColor=none;edgeStyle=orthogonalEdgeStyle;exitX=0;exitY=0.5;exitDx=0;exitDy=0;" edge="1" parent="WIyWlLk6GJQsqaUBKTNV-1" source="WIyWlLk6GJQsqaUBKTNV-3">
          <mxGeometry relative="1" as="geometry">
            <mxPoint x="504" y="160" as="sourcePoint" />
            <mxPoint x="414" y="220" as="targetPoint" />
            <Array as="points">
              <mxPoint x="414" y="160" />
            </Array>
          </mxGeometry>
        </mxCell>
        <mxCell id="8A1BeJ2PKTvU-dlPHzyy-12" value="" style="rounded=0;html=1;jettySize=auto;orthogonalLoop=1;fontSize=11;endArrow=block;endFill=0;endSize=8;strokeWidth=1;shadow=0;labelBackgroundColor=none;edgeStyle=orthogonalEdgeStyle;" edge="1" parent="WIyWlLk6GJQsqaUBKTNV-1">
          <mxGeometry relative="1" as="geometry">
            <mxPoint x="630" y="160" as="sourcePoint" />
            <mxPoint x="720" y="220" as="targetPoint" />
            <Array as="points">
              <mxPoint x="630" y="160" />
              <mxPoint x="720" y="160" />
            </Array>
          </mxGeometry>
        </mxCell>
        <mxCell id="8A1BeJ2PKTvU-dlPHzyy-25" value="Yes" style="rounded=0;html=1;jettySize=auto;orthogonalLoop=1;fontSize=11;endArrow=block;endFill=0;endSize=8;strokeWidth=1;shadow=0;labelBackgroundColor=none;edgeStyle=orthogonalEdgeStyle;entryX=0.5;entryY=0;entryDx=0;entryDy=0;exitX=0.5;exitY=1;exitDx=0;exitDy=0;" edge="1" parent="WIyWlLk6GJQsqaUBKTNV-1" source="8A1BeJ2PKTvU-dlPHzyy-35" target="8A1BeJ2PKTvU-dlPHzyy-28">
          <mxGeometry y="20" relative="1" as="geometry">
            <mxPoint as="offset" />
            <mxPoint x="215" y="300" as="sourcePoint" />
            <mxPoint x="270" y="605" as="targetPoint" />
          </mxGeometry>
        </mxCell>
        <mxCell id="8A1BeJ2PKTvU-dlPHzyy-27" value="вывод данных о записи на день" style="rounded=1;whiteSpace=wrap;html=1;fontSize=12;glass=0;strokeWidth=1;shadow=0;" vertex="1" parent="WIyWlLk6GJQsqaUBKTNV-1">
          <mxGeometry x="308.75" y="620" width="127.5" height="40" as="geometry" />
        </mxCell>
        <mxCell id="8A1BeJ2PKTvU-dlPHzyy-45" style="edgeStyle=orthogonalEdgeStyle;rounded=0;orthogonalLoop=1;jettySize=auto;html=1;entryX=0.5;entryY=0;entryDx=0;entryDy=0;" edge="1" parent="WIyWlLk6GJQsqaUBKTNV-1" source="8A1BeJ2PKTvU-dlPHzyy-28" target="WIyWlLk6GJQsqaUBKTNV-6">
          <mxGeometry relative="1" as="geometry" />
        </mxCell>
        <mxCell id="8A1BeJ2PKTvU-dlPHzyy-49" value="YES" style="edgeLabel;html=1;align=center;verticalAlign=middle;resizable=0;points=[];" vertex="1" connectable="0" parent="8A1BeJ2PKTvU-dlPHzyy-45">
          <mxGeometry x="-0.0756" y="-1" relative="1" as="geometry">
            <mxPoint as="offset" />
          </mxGeometry>
        </mxCell>
        <mxCell id="8A1BeJ2PKTvU-dlPHzyy-47" style="edgeStyle=orthogonalEdgeStyle;rounded=0;orthogonalLoop=1;jettySize=auto;html=1;" edge="1" parent="WIyWlLk6GJQsqaUBKTNV-1" source="8A1BeJ2PKTvU-dlPHzyy-28" target="8A1BeJ2PKTvU-dlPHzyy-15">
          <mxGeometry relative="1" as="geometry" />
        </mxCell>
        <mxCell id="8A1BeJ2PKTvU-dlPHzyy-48" value="NO" style="edgeLabel;html=1;align=center;verticalAlign=middle;resizable=0;points=[];" vertex="1" connectable="0" parent="8A1BeJ2PKTvU-dlPHzyy-47">
          <mxGeometry x="-0.0125" y="2" relative="1" as="geometry">
            <mxPoint as="offset" />
          </mxGeometry>
        </mxCell>
        <mxCell id="8A1BeJ2PKTvU-dlPHzyy-56" value="" style="edgeStyle=orthogonalEdgeStyle;rounded=0;orthogonalLoop=1;jettySize=auto;html=1;" edge="1" parent="WIyWlLk6GJQsqaUBKTNV-1" source="8A1BeJ2PKTvU-dlPHzyy-28" target="8A1BeJ2PKTvU-dlPHzyy-55">
          <mxGeometry relative="1" as="geometry" />
        </mxCell>
        <mxCell id="8A1BeJ2PKTvU-dlPHzyy-57" value="NO" style="edgeLabel;html=1;align=center;verticalAlign=middle;resizable=0;points=[];" vertex="1" connectable="0" parent="8A1BeJ2PKTvU-dlPHzyy-56">
          <mxGeometry x="-0.0088" relative="1" as="geometry">
            <mxPoint as="offset" />
          </mxGeometry>
        </mxCell>
        <mxCell id="8A1BeJ2PKTvU-dlPHzyy-28" value="проверка имени и телефона" style="rhombus;whiteSpace=wrap;html=1;" vertex="1" parent="WIyWlLk6GJQsqaUBKTNV-1">
          <mxGeometry x="310" y="310" width="125" height="105" as="geometry" />
        </mxCell>
        <mxCell id="8A1BeJ2PKTvU-dlPHzyy-50" style="edgeStyle=orthogonalEdgeStyle;rounded=0;orthogonalLoop=1;jettySize=auto;html=1;exitX=0;exitY=0.5;exitDx=0;exitDy=0;entryX=0.5;entryY=0;entryDx=0;entryDy=0;" edge="1" parent="WIyWlLk6GJQsqaUBKTNV-1" source="8A1BeJ2PKTvU-dlPHzyy-35" target="8A1BeJ2PKTvU-dlPHzyy-15">
          <mxGeometry relative="1" as="geometry">
            <mxPoint x="90" y="337" as="targetPoint" />
            <Array as="points">
              <mxPoint x="120" y="240" />
            </Array>
          </mxGeometry>
        </mxCell>
        <mxCell id="8A1BeJ2PKTvU-dlPHzyy-51" value="NO" style="edgeLabel;html=1;align=center;verticalAlign=middle;resizable=0;points=[];" vertex="1" connectable="0" parent="8A1BeJ2PKTvU-dlPHzyy-50">
          <mxGeometry x="0.4132" y="1" relative="1" as="geometry">
            <mxPoint x="30" as="offset" />
          </mxGeometry>
        </mxCell>
        <mxCell id="8A1BeJ2PKTvU-dlPHzyy-35" value="регистрация клиента" style="rounded=1;whiteSpace=wrap;html=1;" vertex="1" parent="WIyWlLk6GJQsqaUBKTNV-1">
          <mxGeometry x="150" y="220" width="130" height="40" as="geometry" />
        </mxCell>
        <mxCell id="8A1BeJ2PKTvU-dlPHzyy-43" value="" style="edgeStyle=orthogonalEdgeStyle;rounded=0;orthogonalLoop=1;jettySize=auto;html=1;exitX=0.5;exitY=1;exitDx=0;exitDy=0;entryX=0.5;entryY=0;entryDx=0;entryDy=0;" edge="1" parent="WIyWlLk6GJQsqaUBKTNV-1" source="8A1BeJ2PKTvU-dlPHzyy-7" target="8A1BeJ2PKTvU-dlPHzyy-28">
          <mxGeometry relative="1" as="geometry">
            <mxPoint x="570" y="260" as="sourcePoint" />
            <mxPoint x="520" y="305" as="targetPoint" />
          </mxGeometry>
        </mxCell>
        <mxCell id="8A1BeJ2PKTvU-dlPHzyy-63" value="" style="edgeStyle=orthogonalEdgeStyle;rounded=0;orthogonalLoop=1;jettySize=auto;html=1;" edge="1" parent="WIyWlLk6GJQsqaUBKTNV-1" source="8A1BeJ2PKTvU-dlPHzyy-15" target="8A1BeJ2PKTvU-dlPHzyy-62">
          <mxGeometry relative="1" as="geometry" />
        </mxCell>
        <mxCell id="8A1BeJ2PKTvU-dlPHzyy-15" value="ввод данных клиента" style="rounded=1;whiteSpace=wrap;html=1;" vertex="1" parent="WIyWlLk6GJQsqaUBKTNV-1">
          <mxGeometry x="60" y="337.5" width="120" height="50" as="geometry" />
        </mxCell>
        <mxCell id="8A1BeJ2PKTvU-dlPHzyy-58" style="edgeStyle=orthogonalEdgeStyle;rounded=0;orthogonalLoop=1;jettySize=auto;html=1;" edge="1" parent="WIyWlLk6GJQsqaUBKTNV-1" source="8A1BeJ2PKTvU-dlPHzyy-55">
          <mxGeometry relative="1" as="geometry">
            <mxPoint x="570" y="110" as="targetPoint" />
            <Array as="points">
              <mxPoint x="800" y="363" />
              <mxPoint x="800" y="100" />
              <mxPoint x="570" y="100" />
            </Array>
          </mxGeometry>
        </mxCell>
        <mxCell id="8A1BeJ2PKTvU-dlPHzyy-55" value="нет клиента" style="ellipse;whiteSpace=wrap;html=1;" vertex="1" parent="WIyWlLk6GJQsqaUBKTNV-1">
          <mxGeometry x="537.5" y="322.5" width="80" height="80" as="geometry" />
        </mxCell>
        <mxCell id="8A1BeJ2PKTvU-dlPHzyy-64" style="edgeStyle=orthogonalEdgeStyle;rounded=0;orthogonalLoop=1;jettySize=auto;html=1;exitX=0;exitY=0.5;exitDx=0;exitDy=0;entryX=0;entryY=0.5;entryDx=0;entryDy=0;" edge="1" parent="WIyWlLk6GJQsqaUBKTNV-1" source="8A1BeJ2PKTvU-dlPHzyy-62" target="8A1BeJ2PKTvU-dlPHzyy-2">
          <mxGeometry relative="1" as="geometry" />
        </mxCell>
        <mxCell id="8A1BeJ2PKTvU-dlPHzyy-62" value="запись данных клиента в базу" style="rounded=1;whiteSpace=wrap;html=1;" vertex="1" parent="WIyWlLk6GJQsqaUBKTNV-1">
          <mxGeometry x="60" y="440" width="120" height="50" as="geometry" />
        </mxCell>
        <mxCell id="8A1BeJ2PKTvU-dlPHzyy-65" value="print &lt;br&gt;всех клиентов" style="whiteSpace=wrap;html=1;rounded=1;" vertex="1" parent="WIyWlLk6GJQsqaUBKTNV-1">
          <mxGeometry x="660" y="403" width="120" height="60" as="geometry" />
        </mxCell>
        <mxCell id="8A1BeJ2PKTvU-dlPHzyy-69" value="start" style="ellipse;whiteSpace=wrap;html=1;aspect=fixed;" vertex="1" parent="WIyWlLk6GJQsqaUBKTNV-1">
          <mxGeometry x="384" y="30" width="60" height="60" as="geometry" />
        </mxCell>
      </root>
    </mxGraphModel>
  </diagram>
</mxfile>
